<svg width="108" height="91" viewBox="0 0 108 91" fill="none" xmlns="http://www.w3.org/2000/svg">
<path d="M91.8437 22.7396C91.8437 20.3272 90.7107 18.0137 88.6938 16.3079C86.677 14.6021 83.9416 13.6438 81.0894 13.6438H75.7122V0H64.9578V13.6438H43.4491V0H32.6948V13.6438H27.3176C24.4654 13.6438 21.73 14.6021 19.7131 16.3079C17.6963 18.0137 16.5633 20.3272 16.5633 22.7396V27.2875H0.431747V36.3834H16.5633V54.575H0.431747V63.6709H16.5633V68.2188C16.5633 70.6311 17.6963 72.9447 19.7131 74.6505C21.73 76.3563 24.4654 77.3146 27.3176 77.3146H32.6948V90.9584H43.4491V77.3146H64.9578V90.9584H75.7122V77.3146H81.0894C83.9416 77.3146 86.677 76.3563 88.6938 74.6505C90.7107 72.9447 91.8437 70.6311 91.8437 68.2188V63.6709H107.975V54.575H91.8437V36.3834H107.975V27.2875H91.8437V22.7396ZM70.335 59.1229H38.072V31.8354H70.335V59.1229Z" fill="#F24E1E"/>
</svg>
