<svg width="75" height="69" viewBox="0 0 75 69" fill="none" xmlns="http://www.w3.org/2000/svg">
<g clip-path="url(#clip0_42_230)">
<path d="M47.1891 3.75198C45.9273 2.56406 44.4202 1.62015 42.7564 0.975696C41.0925 0.331247 39.3053 -0.000732422 37.5 -0.000732422C35.6947 -0.000732422 33.9076 0.331247 32.2437 0.975696C30.5798 1.62015 29.0727 2.56406 27.811 3.75198L24.8953 6.50336L20.7235 6.45592C18.9176 6.43626 17.1257 6.74899 15.4531 7.37573C13.7805 8.00246 12.2611 8.93055 10.984 10.1054C9.70702 11.2803 8.69822 12.6782 8.01699 14.217C7.33575 15.7557 6.99583 17.4043 7.0172 19.0657L7.06408 22.9038L4.08282 25.5862C2.79161 26.747 1.76561 28.1335 1.06512 29.6643C0.364631 31.195 0.00378418 32.8392 0.00378418 34.5001C0.00378418 36.161 0.364631 37.8052 1.06512 39.3359C1.76561 40.8667 2.79161 42.2532 4.08282 43.414L7.06876 46.0964L7.0172 49.9345C6.99583 51.5959 7.33575 53.2445 8.01699 54.7832C8.69822 56.322 9.70702 57.7199 10.984 58.8948C12.2611 60.0697 13.7805 60.9977 15.4531 61.6245C17.1257 62.2512 18.9176 62.5639 20.7235 62.5443L24.8953 62.5012L27.811 65.2439C29.0727 66.4318 30.5798 67.3757 32.2437 68.0202C33.9076 68.6646 35.6947 68.9966 37.5 68.9966C39.3053 68.9966 41.0925 68.6646 42.7564 68.0202C44.4202 67.3757 45.9273 66.4318 47.1891 65.2439L50.1047 62.4968L54.2766 62.5443C56.0824 62.5639 57.8743 62.2512 59.5469 61.6245C61.2195 60.9977 62.739 60.0697 64.016 58.8948C65.293 57.7199 66.3018 56.322 66.983 54.7832C67.6643 53.2445 68.0042 51.5959 67.9828 49.9345L67.936 46.0964L70.9172 43.414C72.2084 42.2532 73.2344 40.8667 73.9349 39.3359C74.6354 37.8052 74.9962 36.161 74.9962 34.5001C74.9962 32.8392 74.6354 31.195 73.9349 29.6643C73.2344 28.1335 72.2084 26.747 70.9172 25.5862L67.9313 22.9038L67.9828 19.0657C68.0042 17.4043 67.6643 15.7557 66.983 14.217C66.3018 12.6782 65.293 11.2803 64.016 10.1054C62.739 8.93055 61.2195 8.00246 59.5469 7.37573C57.8743 6.74899 56.0824 6.43626 54.2766 6.45592L50.1047 6.49905L47.1891 3.7563V3.75198ZM48.5344 29.558L34.4719 42.4955C34.2542 42.6963 33.9955 42.8556 33.7108 42.9643C33.4261 43.073 33.1208 43.129 32.8125 43.129C32.5042 43.129 32.199 43.073 31.9142 42.9643C31.6295 42.8556 31.3709 42.6963 31.1531 42.4955L24.1219 36.0267C23.904 35.8262 23.7311 35.5882 23.6132 35.3263C23.4953 35.0644 23.4346 34.7836 23.4346 34.5001C23.4346 34.2166 23.4953 33.9358 23.6132 33.6739C23.7311 33.412 23.904 33.174 24.1219 32.9735C24.3398 32.773 24.5985 32.614 24.8832 32.5055C25.1679 32.397 25.4731 32.3411 25.7813 32.3411C26.0894 32.3411 26.3946 32.397 26.6793 32.5055C26.964 32.614 27.2227 32.773 27.4406 32.9735L32.8125 37.9199L45.2156 26.5047C45.6557 26.0998 46.2526 25.8724 46.875 25.8724C47.4974 25.8724 48.0943 26.0998 48.5344 26.5047C48.9745 26.9096 49.2217 27.4588 49.2217 28.0314C49.2217 28.604 48.9745 29.1531 48.5344 29.558Z" fill="#699BF7"/>
</g>
<defs>
<clipPath id="clip0_42_230">
<rect width="75" height="69" fill="white"/>
</clipPath>
</defs>
</svg>
