<svg width="566" height="124" viewBox="0 0 566 124" fill="none" xmlns="http://www.w3.org/2000/svg">
<rect y="48" width="160" height="10" rx="5" fill="#FA5757"/>
<rect x="198" y="48" width="160" height="10" rx="5" fill="#0D3291"/>
<rect x="405" y="48" width="160" height="10" rx="5" fill="#F24E1E"/>
<rect x="105" y="24" width="160" height="10" rx="5" fill="#0D3291"/>
<rect x="303" y="24" width="160" height="10" rx="5" fill="#0D3291"/>
<rect width="160" height="10" rx="5" fill="#FA5757"/>
<rect x="198" width="160" height="10" rx="5" fill="#0D3291"/>
<rect x="396" y="1" width="160" height="10" rx="5" fill="#FA5757"/>
<rect x="396" y="1" width="160" height="10" rx="5" fill="#FA5757"/>
<rect x="396" y="1" width="160" height="10" rx="5" fill="#FA5757"/>
<rect x="5" y="92" width="160" height="10" rx="5" fill="#1F2D51"/>
<rect x="101" y="70" width="160" height="10" rx="5" fill="#FA5757"/>
<rect x="69" y="114" width="160" height="10" rx="5" fill="#FA5757"/>
<rect x="199" y="92" width="160" height="10" rx="5" fill="#FA5757"/>
<rect x="297" y="70" width="160" height="10" rx="5" fill="#1F2D51"/>
<rect x="279" y="114" width="160" height="10" rx="5" fill="#1F2D51"/>
<rect x="406" y="92" width="160" height="10" rx="5" fill="#1F2D51"/>
</svg>
