<svg width="84" height="70" viewBox="0 0 84 70" fill="none" xmlns="http://www.w3.org/2000/svg">
<path d="M38.8125 0.5V3.73438C36.7087 4.10525 34.6687 4.755 32.9347 5.8015L30.4453 3.55325L25.8617 7.59837L28.4531 9.93288C27.3499 11.4349 26.5722 13.1118 26.1613 14.875H22.875V20.625H26.1613C26.5722 22.3882 27.3499 24.0651 28.4531 25.5671L25.8617 27.9016L30.4453 31.9439L32.9347 29.7014C34.6656 30.745 36.7087 31.3976 38.8125 31.7656V35H45.1875V31.7656C47.1319 31.3832 48.9615 30.7536 50.568 29.7876L52.9586 31.9439L57.4402 27.9016L55.0496 25.7454C56.1971 24.2188 57.0163 22.488 57.4402 20.625H61.125V14.875H57.4402C57.0246 13.043 56.2122 11.303 55.0496 9.75462L57.4402 7.59837L52.9554 3.55325L50.5648 5.7095C48.9615 4.74637 47.1287 4.11675 45.1875 3.73438V0.5H38.8125ZM41.8024 9.125C47.1159 9.125 51.3649 12.9545 51.3649 17.75C51.3649 22.5455 47.1159 26.375 41.8024 26.375C36.4856 26.375 32.2399 22.5455 32.2399 17.75C32.2399 12.9545 36.4856 9.125 41.8024 9.125ZM16.5 35V38.1452C14.3982 38.4949 12.398 39.2287 10.6222 40.3015L8.13281 38.0532L3.54919 42.0984L6.14062 44.4329C5.0374 45.9349 4.25974 47.6118 3.84881 49.375H0.5625V55.125H3.84881C4.26319 56.9219 5.06006 58.575 6.14062 60.0671L3.54919 62.4016L8.13281 66.4467L10.6222 64.1985C12.398 65.2713 14.3982 66.0051 16.5 66.3548V69.5H22.875V66.2656C24.8194 65.8832 26.649 65.2536 28.2555 64.2876L30.6461 66.4439L35.1277 62.4016L32.7371 60.2454C33.8865 58.7231 34.6983 57.0146 35.1277 55.2141L38.9081 55.125L38.7105 49.375L35.1246 49.4641C34.7227 47.6007 33.9097 45.8291 32.7339 44.2546L35.1246 42.0984L30.6429 38.0532L28.2523 40.2095C26.6458 39.2464 24.813 38.6167 22.8718 38.2344V35H16.5ZM61.125 35V38.2344C59.0212 38.6053 56.9812 39.255 55.2472 40.3015L52.7578 38.0532L48.1742 42.0984L50.7656 44.4329C49.6624 45.9349 48.8847 47.6118 48.4738 49.375H45.1875V55.125H48.4738C48.8847 56.8882 49.6624 58.5651 50.7656 60.0671L48.1742 62.4016L52.7578 66.4467L55.2472 64.1985C56.9781 65.245 59.0212 65.8948 61.125 66.2656V69.5H67.5V66.2656C69.386 65.8768 71.1758 65.1759 72.7785 64.1985L75.2711 66.4467L79.7527 62.4016L77.3621 60.2454C78.5096 58.7417 79.3161 57.0541 79.7527 55.2141L83.5331 55.125L83.3355 49.375L79.7496 49.4641C79.3352 47.5896 78.4044 45.8819 77.2569 44.3438L79.7496 42.0984L75.2647 38.0532L72.7785 40.3015C71.1641 39.3631 69.3764 38.6932 67.5 38.3235V35H61.125ZM19.4867 43.625C24.8034 43.625 29.0492 47.4545 29.0492 52.25C29.0492 57.0455 24.8034 60.875 19.4867 60.875C14.1731 60.875 9.92419 57.0455 9.92419 52.25C9.92419 47.4545 14.1731 43.625 19.4867 43.625ZM64.1117 43.625C69.4284 43.625 73.6742 47.4545 73.6742 52.25C73.6742 57.0455 69.4284 60.875 64.1117 60.875C58.7981 60.875 54.5492 57.0455 54.5492 52.25C54.5492 47.4545 58.7981 43.625 64.1117 43.625Z" fill="#FA5757"/>
</svg>
