<svg width="58" height="46" viewBox="0 0 58 46" fill="none" xmlns="http://www.w3.org/2000/svg">
<path fill-rule="evenodd" clip-rule="evenodd" d="M7.14156e-07 3.82917C7.14156e-07 2.81361 0.508321 1.83965 1.41314 1.12154C2.31795 0.403434 3.54515 5.10482e-06 4.82475 5.10482e-06H52.92C53.5541 -0.000816878 54.1822 0.0976362 54.7684 0.289727C55.3545 0.481819 55.8871 0.763775 56.3358 1.11946C56.7844 1.47514 57.1403 1.89755 57.3829 2.36253C57.6256 2.8275 57.7503 3.32589 57.75 3.82917V42C57.7507 42.5034 57.6263 43.0019 57.384 43.4671C57.1417 43.9323 56.7862 44.355 56.3378 44.7111C55.8894 45.0671 55.357 45.3495 54.771 45.5421C54.185 45.7346 53.5569 45.8336 52.9226 45.8333H4.82475C4.19093 45.8333 3.56333 45.7342 2.97779 45.5417C2.39226 45.3491 1.86026 45.0669 1.41221 44.7111C0.964155 44.3553 0.608821 43.9329 0.366509 43.4681C0.124197 43.0033 -0.000344126 42.5051 7.14156e-07 42.0021V3.82917ZM22.8585 17.475H30.6784V20.5917C31.8071 18.8 34.6946 17.1875 39.0337 17.1875C47.3524 17.1875 49.3238 20.7563 49.3238 27.3042V39.4333H40.9054V28.7958C40.9054 25.0667 39.7766 22.9625 36.9101 22.9625C32.9333 22.9625 31.2795 25.2313 31.2795 28.7958V39.4333H22.8585V17.475ZM8.421 39.1479H16.842V17.1875H8.421V39.1458V39.1479ZM18.0469 10.025C18.0628 10.5972 17.9345 11.1662 17.6695 11.6986C17.4046 12.2309 17.0083 12.7159 16.504 13.1251C15.9997 13.5342 15.3975 13.8593 14.7327 14.0813C14.0679 14.3032 13.354 14.4175 12.6328 14.4175C11.9116 14.4175 11.1977 14.3032 10.5329 14.0813C9.86817 13.8593 9.26596 13.5342 8.76164 13.1251C8.25733 12.7159 7.86107 12.2309 7.59612 11.6986C7.33117 11.1662 7.20287 10.5972 7.21875 10.025C7.24992 8.90178 7.83401 7.8329 8.84595 7.04727C9.85789 6.26163 11.2172 5.82171 12.6328 5.82171C14.0484 5.82171 15.4077 6.26163 16.4197 7.04727C17.4316 7.8329 18.0157 8.90178 18.0469 10.025Z" fill="#F24E1E"/>
</svg>
