<svg width="71" height="59" viewBox="0 0 71 59" fill="none" xmlns="http://www.w3.org/2000/svg">
<path d="M31.0625 40.5109C31.0625 41.4889 31.53 42.4268 32.3622 43.1183C33.1944 43.8099 34.3231 44.1984 35.5 44.1984C36.6769 44.1984 37.8056 43.8099 38.6378 43.1183C39.47 42.4268 39.9375 41.4889 39.9375 40.5109V14.1158L54.3283 26.0743L60.6029 20.8602L35.5 0L10.3971 20.8602L16.6717 26.0743L31.0625 14.1231V40.5146V40.5109Z" fill="#699BF7"/>
<path d="M0 36.875H8.875V51.625H62.125V36.875H71V51.625C71 53.581 70.065 55.4568 68.4006 56.8399C66.7362 58.223 64.4788 59 62.125 59H8.875C6.5212 59 4.26381 58.223 2.59943 56.8399C0.935042 55.4568 0 53.581 0 51.625V36.875Z" fill="#699BF7"/>
</svg>
