<svg width="581" height="723" viewBox="0 0 581 723" fill="none" xmlns="http://www.w3.org/2000/svg">
<rect y="84.2466" width="200" height="551.278" rx="10" fill="#0D6191" fill-opacity="0.99"/>
<path d="M154 485.098V505.418H75.6719L83.1953 529.676H66.6719L51.4844 487.277V485.098H154ZM111.672 382.863C125.828 382.863 136.656 385.793 144.156 391.652C151.656 397.512 155.406 406.09 155.406 417.387C155.406 428.543 151.727 437.074 144.367 442.98C137.008 448.887 126.461 451.91 112.727 452.051H93.8828C79.5859 452.051 68.7344 449.098 61.3281 443.191C53.9219 437.238 50.2188 428.684 50.2188 417.527C50.2188 406.371 53.8984 397.84 61.2578 391.934C68.5703 386.027 79.0938 383.004 92.8281 382.863H111.672ZM91 403.184C82.5156 403.184 76.3516 404.355 72.5078 406.699C68.6172 408.996 66.6719 412.605 66.6719 417.527C66.6719 422.309 68.5234 425.848 72.2266 428.145C75.8828 430.395 81.625 431.59 89.4531 431.73H114.344C122.688 431.73 128.898 430.605 132.977 428.355C137.008 426.059 139.023 422.402 139.023 417.387C139.023 412.418 137.078 408.832 133.188 406.629C129.297 404.426 123.344 403.277 115.328 403.184H91ZM111.672 300.176C125.828 300.176 136.656 303.105 144.156 308.965C151.656 314.824 155.406 323.402 155.406 334.699C155.406 345.855 151.727 354.387 144.367 360.293C137.008 366.199 126.461 369.223 112.727 369.363H93.8828C79.5859 369.363 68.7344 366.41 61.3281 360.504C53.9219 354.551 50.2188 345.996 50.2188 334.84C50.2188 323.684 53.8984 315.152 61.2578 309.246C68.5703 303.34 79.0938 300.316 92.8281 300.176H111.672ZM91 320.496C82.5156 320.496 76.3516 321.668 72.5078 324.012C68.6172 326.309 66.6719 329.918 66.6719 334.84C66.6719 339.621 68.5234 343.16 72.2266 345.457C75.8828 347.707 81.625 348.902 89.4531 349.043H114.344C122.688 349.043 128.898 347.918 132.977 345.668C137.008 343.371 139.023 339.715 139.023 334.699C139.023 329.73 137.078 326.145 133.188 323.941C129.297 321.738 123.344 320.59 115.328 320.496H91ZM71.3125 286.676C65.0313 286.676 59.9453 284.637 56.0547 280.559C52.1172 276.48 50.1484 271.137 50.1484 264.527C50.1484 257.824 52.0938 252.434 55.9844 248.355C59.8281 244.277 65.0547 242.238 71.6641 242.238H76.7266C83.0547 242.238 88.1406 244.277 91.9844 248.355C95.8281 252.434 97.75 257.777 97.75 264.387C97.75 271.043 95.8281 276.434 91.9844 280.559C88.0938 284.637 82.8672 286.676 76.3047 286.676H71.3125ZM76.7266 273.176C79.5391 273.176 81.8125 272.379 83.5469 270.785C85.2344 269.145 86.0781 267.012 86.0781 264.387C86.0781 261.762 85.2109 259.676 83.4766 258.129C81.7422 256.582 79.4219 255.809 76.5156 255.809H71.3125C68.5 255.809 66.2266 256.582 64.4922 258.129C62.7578 259.676 61.8906 261.809 61.8906 264.527C61.8906 267.105 62.7578 269.191 64.4922 270.785C66.1797 272.379 68.5469 273.176 71.5938 273.176H76.7266ZM128.898 237.738C122.57 237.738 117.484 235.676 113.641 231.551C109.75 227.426 107.805 222.082 107.805 215.52C107.805 208.863 109.727 203.496 113.57 199.418C117.367 195.293 122.617 193.23 129.32 193.23H134.383C140.664 193.23 145.75 195.246 149.641 199.277C153.484 203.309 155.406 208.676 155.406 215.379C155.406 222.129 153.461 227.543 149.57 231.621C145.68 235.699 140.523 237.738 134.102 237.738H128.898ZM134.383 224.238C136.961 224.238 139.164 223.395 140.992 221.707C142.82 220.02 143.734 217.91 143.734 215.379C143.734 209.66 140.57 206.801 134.242 206.801H128.898C126.086 206.801 123.836 207.598 122.148 209.191C120.414 210.785 119.547 212.895 119.547 215.52C119.547 218.145 120.414 220.254 122.148 221.848C123.836 223.441 126.156 224.238 129.109 224.238H134.383ZM146.336 260.379L140.992 270.293L60.9766 220.301L66.3203 210.387L146.336 260.379Z" fill="white"/>
<g filter="url(#filter0_d_12_90)">
<rect x="153" y="20" width="188" height="194.812" rx="10" fill="#FA5757"/>
</g>
<path d="M237.361 64C240.866 64 242.865 67.3105 242.865 70.635V91.0103H238.427C237.564 88.987 235.986 87.3114 233.963 86.2706C231.94 85.2298 229.599 84.8886 227.34 85.3055C225.081 85.7224 223.045 86.8715 221.581 88.5557C220.118 90.24 219.317 92.3545 219.317 94.5371C219.317 96.7196 220.118 98.8342 221.581 100.518C223.045 102.203 225.081 103.352 227.34 103.769C229.599 104.185 231.94 103.844 233.963 102.804C235.986 101.763 237.564 100.087 238.427 98.0638H242.865V149.31C242.865 152.113 241.615 154.901 238.982 156.175C236.595 157.361 233.942 157.987 231.247 158C223.76 158 218.192 154.407 214.607 150.156C212.124 147.223 210.393 143.783 209.55 140.108C207.234 139.46 205.09 138.354 203.257 136.863C199.737 133.99 197 129.381 197 122.591C197 119.041 197.268 115.947 197.942 113.346H218.817C222.178 113.346 224.965 115.698 225.436 118.759C223.311 119.593 221.558 121.101 220.476 123.026C219.394 124.95 219.051 127.172 219.506 129.31C219.961 131.447 221.185 133.369 222.969 134.745C224.754 136.121 226.987 136.867 229.286 136.854C231.586 136.841 233.809 136.07 235.576 134.674C237.343 133.277 238.543 131.342 238.97 129.199C239.398 127.056 239.028 124.839 237.922 122.927C236.816 121.014 235.044 119.526 232.908 118.717C232.648 115.341 231.05 112.184 228.436 109.879C225.822 107.575 222.386 106.293 218.817 106.293H202.157C202.899 105.711 203.726 105.233 204.611 104.873C204.1 103.145 203.804 101.366 203.728 99.5733C203.565 96.1171 204.11 92.5198 205.191 89.3175C206.262 86.1669 207.958 83.0962 210.338 80.9755C211.831 79.5958 213.722 78.6678 215.772 78.3093C216.759 74.3593 219.273 71.0958 222.481 68.7306C226.601 65.6834 232.001 64 237.356 64H237.361ZM250.302 134.507H258.483C262.231 134.507 265.825 133.095 268.476 130.582C271.126 128.068 272.615 124.66 272.615 121.105V112.665C274.748 111.846 276.515 110.35 277.612 108.431C278.71 106.513 279.069 104.292 278.63 102.15C278.19 100.007 276.979 98.0768 275.203 96.6887C273.427 95.3006 271.197 94.5415 268.896 94.5415C266.594 94.5415 264.365 95.3006 262.589 96.6887C260.813 98.0768 259.601 100.007 259.162 102.15C258.722 104.292 259.082 106.513 260.179 108.431C261.277 110.35 263.044 111.846 265.177 112.665V121.105C265.177 122.789 264.472 124.404 263.216 125.594C261.961 126.785 260.259 127.454 258.483 127.454H250.302V94.57V94.5371V70.635C250.302 67.3105 252.3 64 255.806 64C261.171 64 266.565 65.6834 270.686 68.7306C273.894 71.0958 276.408 74.364 277.394 78.3093C279.477 78.6384 281.331 79.6447 282.829 80.9755C285.209 83.0962 286.904 86.1622 287.975 89.3175C289.056 92.5198 289.602 96.1171 289.438 99.5733C289.354 101.341 289.081 103.147 288.556 104.873L288.883 105.014C290.717 105.832 292.205 107.116 293.316 108.823C295.423 112.044 296.167 116.68 296.167 122.591C296.167 129.386 293.43 133.999 289.909 136.863C288.076 138.354 285.929 139.46 283.612 140.108C282.77 143.783 281.04 147.222 278.56 150.156C274.975 154.407 269.407 158 261.914 158C259.22 157.989 256.567 157.365 254.179 156.18C251.552 154.901 250.302 152.113 250.302 149.31V134.507ZM226.75 94.5371C226.75 93.9135 227.011 93.3155 227.476 92.8745C227.941 92.4336 228.572 92.1859 229.229 92.1859C229.887 92.1859 230.517 92.4336 230.982 92.8745C231.447 93.3155 231.708 93.9135 231.708 94.5371C231.708 95.1606 231.447 95.7587 230.982 96.1996C230.517 96.6405 229.887 96.8882 229.229 96.8882C228.572 96.8882 227.941 96.6405 227.476 96.1996C227.011 95.7587 226.75 95.1606 226.75 94.5371ZM229.229 125.102C228.572 125.102 227.941 125.35 227.476 125.791C227.011 126.232 226.75 126.83 226.75 127.454C226.75 128.077 227.011 128.675 227.476 129.116C227.941 129.557 228.572 129.805 229.229 129.805C229.887 129.805 230.517 129.557 230.982 129.116C231.447 128.675 231.708 128.077 231.708 127.454C231.708 126.83 231.447 126.232 230.982 125.791C230.517 125.35 229.887 125.102 229.229 125.102ZM266.417 103.942C266.417 104.565 266.678 105.163 267.143 105.604C267.608 106.045 268.238 106.293 268.896 106.293C269.553 106.293 270.184 106.045 270.649 105.604C271.114 105.163 271.375 104.565 271.375 103.942C271.375 103.318 271.114 102.72 270.649 102.279C270.184 101.838 269.553 101.591 268.896 101.591C268.238 101.591 267.608 101.838 267.143 102.279C266.678 102.72 266.417 103.318 266.417 103.942Z" fill="white"/>
<g filter="url(#filter1_d_12_90)">
<rect x="313" y="243.827" width="188" height="194.812" rx="10" fill="#406EE2"/>
</g>
<g filter="url(#filter2_d_12_90)">
<rect x="173" y="467.654" width="188" height="194.812" rx="10" fill="#0D3290"/>
</g>
<path d="M451.433 318.646L449.664 321.841C449.018 323.025 447.637 323.516 446.408 323.047C443.864 322.064 441.535 320.657 439.486 318.892C438.494 318.043 438.235 316.546 438.882 315.384L440.651 312.189C439.163 310.402 437.998 308.324 437.222 306.068H433.664C432.37 306.068 431.249 305.107 431.033 303.767C430.602 301.086 430.58 298.271 431.033 295.478C431.249 294.138 432.37 293.155 433.664 293.155H437.222C437.998 290.899 439.163 288.821 440.651 287.034L438.882 283.839C438.235 282.677 438.473 281.18 439.486 280.331C441.535 278.566 443.885 277.159 446.408 276.176C447.637 275.707 449.018 276.198 449.664 277.382L451.433 280.577C453.697 280.153 456.004 280.153 458.269 280.577L460.037 277.382C460.684 276.198 462.064 275.707 463.293 276.176C465.838 277.159 468.167 278.566 470.215 280.331C471.207 281.18 471.466 282.677 470.819 283.839L469.051 287.034C470.539 288.821 471.703 290.899 472.479 293.155H476.038C477.331 293.155 478.453 294.116 478.668 295.456C479.1 298.137 479.121 300.952 478.668 303.745C478.453 305.085 477.331 306.068 476.038 306.068H472.479C471.703 308.324 470.539 310.402 469.051 312.189L470.819 315.384C471.466 316.546 471.229 318.043 470.215 318.892C468.167 320.657 465.816 322.064 463.293 323.047C462.064 323.516 460.684 323.025 460.037 321.841L458.269 318.646C456.026 319.07 453.697 319.07 451.433 318.646ZM449.168 305.51C457.471 312.122 466.937 302.315 460.554 293.714C452.252 287.078 442.785 296.908 449.168 305.51ZM424.305 339.892L431.572 343.645C433.75 344.941 434.699 347.689 433.836 350.147C431.917 355.553 428.143 360.513 424.65 364.847C423.054 366.835 420.294 367.327 418.116 366.031L411.841 362.278C408.39 365.338 404.379 367.774 400.002 369.36V376.866C400.002 379.458 398.212 381.692 395.754 382.139C390.449 383.077 384.885 383.122 379.386 382.139C376.907 381.692 375.074 379.48 375.074 376.866V369.36C370.696 367.751 366.685 365.338 363.235 362.278L356.96 366.009C354.803 367.304 352.021 366.813 350.426 364.825C346.932 360.49 343.245 355.531 341.325 350.147C340.463 347.711 341.412 344.964 343.59 343.645L350.771 339.892C349.93 335.223 349.93 330.42 350.771 325.728L343.59 321.952C341.412 320.657 340.441 317.909 341.325 315.474C343.245 310.067 346.932 305.107 350.426 300.773C352.021 298.785 354.782 298.293 356.96 299.589L363.235 303.342C366.685 300.282 370.696 297.847 375.074 296.26V288.732C375.074 286.162 376.842 283.928 379.3 283.481C384.605 282.543 390.19 282.498 395.689 283.459C398.169 283.906 400.002 286.118 400.002 288.732V296.238C404.379 297.847 408.39 300.259 411.841 303.32L418.116 299.567C420.272 298.271 423.054 298.763 424.65 300.751C428.143 305.085 431.809 310.045 433.728 315.451C434.591 317.886 433.75 320.634 431.572 321.952L424.305 325.706C425.146 330.397 425.146 335.201 424.305 339.892ZM398.945 344.606C411.711 327.404 392.756 307.766 376.152 320.992C363.386 338.194 382.341 357.832 398.945 344.606ZM451.433 385.423L449.664 388.618C449.018 389.802 447.637 390.293 446.408 389.824C443.864 388.841 441.535 387.434 439.486 385.669C438.494 384.82 438.235 383.323 438.882 382.161L440.651 378.966C439.163 377.179 437.998 375.101 437.222 372.845H433.664C432.37 372.845 431.249 371.884 431.033 370.544C430.602 367.863 430.58 365.048 431.033 362.255C431.249 360.915 432.37 359.932 433.664 359.932H437.222C437.998 357.675 439.163 355.598 440.651 353.811L438.882 350.616C438.235 349.454 438.473 347.957 439.486 347.108C441.535 345.343 443.885 343.936 446.408 342.953C447.637 342.484 449.018 342.975 449.664 344.159L451.433 347.354C453.697 346.93 456.004 346.93 458.269 347.354L460.037 344.159C460.684 342.975 462.064 342.484 463.293 342.953C465.838 343.936 468.167 345.343 470.215 347.108C471.207 347.957 471.466 349.454 470.819 350.616L469.051 353.811C470.539 355.598 471.703 357.675 472.479 359.932H476.038C477.331 359.932 478.453 360.893 478.668 362.233C479.1 364.914 479.121 367.729 478.668 370.522C478.453 371.862 477.331 372.845 476.038 372.845H472.479C471.703 375.101 470.539 377.179 469.051 378.966L470.819 382.161C471.466 383.323 471.229 384.82 470.215 385.669C468.167 387.434 465.816 388.841 463.293 389.824C462.064 390.293 460.684 389.802 460.037 388.618L458.269 385.423C456.026 385.847 453.697 385.847 451.433 385.423ZM449.168 372.264C457.471 378.877 466.937 369.069 460.554 360.468C452.252 353.855 442.785 363.663 449.168 372.264Z" fill="white"/>
<path d="M299.872 533.018V526.303C299.872 525.687 299.384 525.183 298.787 525.183H246.702C246.105 525.183 245.617 525.687 245.617 526.303V533.018C245.617 533.634 246.105 534.138 246.702 534.138H298.787C299.384 534.138 299.872 533.634 299.872 533.018ZM246.702 545.33C246.105 545.33 245.617 545.834 245.617 546.45V553.165C245.617 553.781 246.105 554.284 246.702 554.284H271.66C272.256 554.284 272.745 553.781 272.745 553.165V546.45C272.745 545.834 272.256 545.33 271.66 545.33H246.702ZM297.702 561.56C281.52 561.56 268.404 575.089 268.404 591.78C268.404 608.471 281.52 622 297.702 622C313.884 622 327 608.471 327 591.78C327 575.089 313.884 561.56 297.702 561.56ZM312.283 606.82C308.39 610.835 303.209 613.046 297.702 613.046C292.195 613.046 287.014 610.835 283.121 606.82C279.228 602.805 277.085 597.46 277.085 591.78C277.085 586.1 279.228 580.755 283.121 576.74C287.014 572.724 292.195 570.514 297.702 570.514C303.209 570.514 308.39 572.724 312.283 576.74C316.176 580.755 318.319 586.1 318.319 591.78C318.319 597.46 316.176 602.805 312.283 606.82ZM309.774 581.147H303.765C303.412 581.147 303.087 581.315 302.884 581.608L294.27 593.892L291.137 589.429C291.037 589.285 290.904 589.168 290.751 589.088C290.598 589.007 290.428 588.966 290.256 588.968H284.274C283.392 588.968 282.877 590.003 283.392 590.744L293.402 605.029C293.836 605.645 294.718 605.645 295.152 605.029L310.642 582.924C311.171 582.182 310.656 581.147 309.774 581.147ZM266.234 608.569H234.766V510.073H310.723V558.202C310.723 558.817 311.212 559.321 311.809 559.321H319.404C320.001 559.321 320.489 558.817 320.489 558.202V504.477C320.489 502.001 318.55 500 316.149 500H229.34C226.94 500 225 502.001 225 504.477V614.165C225 616.642 226.94 618.642 229.34 618.642H266.234C266.831 618.642 267.319 618.139 267.319 617.523V609.688C267.319 609.072 266.831 608.569 266.234 608.569Z" fill="white"/>
<defs>
<filter id="filter0_d_12_90" x="123" y="0" width="268" height="274.812" filterUnits="userSpaceOnUse" color-interpolation-filters="sRGB">
<feFlood flood-opacity="0" result="BackgroundImageFix"/>
<feColorMatrix in="SourceAlpha" type="matrix" values="0 0 0 0 0 0 0 0 0 0 0 0 0 0 0 0 0 0 127 0" result="hardAlpha"/>
<feOffset dx="10" dy="20"/>
<feGaussianBlur stdDeviation="20"/>
<feComposite in2="hardAlpha" operator="out"/>
<feColorMatrix type="matrix" values="0 0 0 0 0 0 0 0 0 0 0 0 0 0 0 0 0 0 0.25 0"/>
<feBlend mode="normal" in2="BackgroundImageFix" result="effect1_dropShadow_12_90"/>
<feBlend mode="normal" in="SourceGraphic" in2="effect1_dropShadow_12_90" result="shape"/>
</filter>
<filter id="filter1_d_12_90" x="313" y="223.827" width="268" height="274.812" filterUnits="userSpaceOnUse" color-interpolation-filters="sRGB">
<feFlood flood-opacity="0" result="BackgroundImageFix"/>
<feColorMatrix in="SourceAlpha" type="matrix" values="0 0 0 0 0 0 0 0 0 0 0 0 0 0 0 0 0 0 127 0" result="hardAlpha"/>
<feOffset dx="40" dy="20"/>
<feGaussianBlur stdDeviation="20"/>
<feComposite in2="hardAlpha" operator="out"/>
<feColorMatrix type="matrix" values="0 0 0 0 0.251458 0 0 0 0 0.42955 0 0 0 0 0.8875 0 0 0 0.15 0"/>
<feBlend mode="normal" in2="BackgroundImageFix" result="effect1_dropShadow_12_90"/>
<feBlend mode="normal" in="SourceGraphic" in2="effect1_dropShadow_12_90" result="shape"/>
</filter>
<filter id="filter2_d_12_90" x="143" y="447.654" width="268" height="274.812" filterUnits="userSpaceOnUse" color-interpolation-filters="sRGB">
<feFlood flood-opacity="0" result="BackgroundImageFix"/>
<feColorMatrix in="SourceAlpha" type="matrix" values="0 0 0 0 0 0 0 0 0 0 0 0 0 0 0 0 0 0 127 0" result="hardAlpha"/>
<feOffset dx="10" dy="20"/>
<feGaussianBlur stdDeviation="20"/>
<feComposite in2="hardAlpha" operator="out"/>
<feColorMatrix type="matrix" values="0 0 0 0 0 0 0 0 0 0 0 0 0 0 0 0 0 0 0.25 0"/>
<feBlend mode="normal" in2="BackgroundImageFix" result="effect1_dropShadow_12_90"/>
<feBlend mode="normal" in="SourceGraphic" in2="effect1_dropShadow_12_90" result="shape"/>
</filter>
</defs>
</svg>
