<svg width="134" height="35" viewBox="0 0 134 35" fill="none" xmlns="http://www.w3.org/2000/svg">
<g filter="url(#filter0_d_3_5)">
<path d="M13.5117 14.5918C10.6172 13.7598 8.50781 12.7402 7.18359 11.5332C5.87109 10.3145 5.21484 8.81445 5.21484 7.0332C5.21484 5.01758 6.01758 3.35352 7.62305 2.04102C9.24023 0.716797 11.3379 0.0546875 13.916 0.0546875C15.6738 0.0546875 17.2383 0.394531 18.6094 1.07422C19.9922 1.75391 21.0586 2.69141 21.8086 3.88672C22.5703 5.08203 22.9512 6.38867 22.9512 7.80664H19.5586C19.5586 6.25977 19.0664 5.04688 18.082 4.16797C17.0977 3.27734 15.709 2.83203 13.916 2.83203C12.252 2.83203 10.9512 3.20117 10.0137 3.93945C9.08789 4.66602 8.625 5.67969 8.625 6.98047C8.625 8.02344 9.06445 8.9082 9.94336 9.63477C10.834 10.3496 12.3398 11.0059 14.4609 11.6035C16.5938 12.2012 18.2578 12.8633 19.4531 13.5898C20.6602 14.3047 21.5508 15.1426 22.125 16.1035C22.7109 17.0645 23.0039 18.1953 23.0039 19.4961C23.0039 21.5703 22.1953 23.2344 20.5781 24.4883C18.9609 25.7305 16.7988 26.3516 14.0918 26.3516C12.334 26.3516 10.6934 26.0176 9.16992 25.3496C7.64648 24.6699 6.46875 23.7441 5.63672 22.5723C4.81641 21.4004 4.40625 20.0703 4.40625 18.582H7.79883C7.79883 20.1289 8.36719 21.3535 9.50391 22.2559C10.6523 23.1465 12.1816 23.5918 14.0918 23.5918C15.873 23.5918 17.2383 23.2285 18.1875 22.502C19.1367 21.7754 19.6113 20.7852 19.6113 19.5312C19.6113 18.2773 19.1719 17.3105 18.293 16.6309C17.4141 15.9395 15.8203 15.2598 13.5117 14.5918ZM25.9746 16.3145C25.9746 14.4512 26.3379 12.7754 27.0645 11.2871C27.8027 9.79883 28.8223 8.65039 30.123 7.8418C31.4355 7.0332 32.9297 6.62891 34.6055 6.62891C37.1953 6.62891 39.2871 7.52539 40.8809 9.31836C42.4863 11.1113 43.2891 13.4961 43.2891 16.4727V16.7012C43.2891 18.5527 42.9316 20.2168 42.2168 21.6934C41.5137 23.1582 40.5 24.3008 39.1758 25.1211C37.8633 25.9414 36.3516 26.3516 34.6406 26.3516C32.0625 26.3516 29.9707 25.4551 28.3652 23.6621C26.7715 21.8691 25.9746 19.4961 25.9746 16.543V16.3145ZM29.2441 16.7012C29.2441 18.8105 29.7305 20.5039 30.7031 21.7812C31.6875 23.0586 33 23.6973 34.6406 23.6973C36.293 23.6973 37.6055 23.0527 38.5781 21.7637C39.5508 20.4629 40.0371 18.6465 40.0371 16.3145C40.0371 14.2285 39.5391 12.541 38.543 11.252C37.5586 9.95117 36.2461 9.30078 34.6055 9.30078C33 9.30078 31.7051 9.93945 30.7207 11.2168C29.7363 12.4941 29.2441 14.3223 29.2441 16.7012ZM56.5605 9.89844C56.0684 9.81641 55.5352 9.77539 54.9609 9.77539C52.8281 9.77539 51.3809 10.6836 50.6191 12.5V26H47.3672V6.98047H50.5312L50.584 9.17773C51.6504 7.47852 53.1621 6.62891 55.1191 6.62891C55.752 6.62891 56.2324 6.71094 56.5605 6.875V9.89844ZM64.8574 2.375V6.98047H68.4082V9.49414H64.8574V21.2891C64.8574 22.0508 65.0156 22.625 65.332 23.0117C65.6484 23.3867 66.1875 23.5742 66.9492 23.5742C67.3242 23.5742 67.8398 23.5039 68.4961 23.3633V26C67.6406 26.2344 66.8086 26.3516 66 26.3516C64.5469 26.3516 63.4512 25.9121 62.7129 25.0332C61.9746 24.1543 61.6055 22.9062 61.6055 21.2891V9.49414H58.1426V6.98047H61.6055V2.375H64.8574Z" fill="#0D2D5F"/>
<path d="M72.7324 26V0.40625H81.0996C83.877 0.40625 85.9629 0.980469 87.3574 2.12891C88.7637 3.27734 89.4668 4.97656 89.4668 7.22656C89.4668 8.42188 89.127 9.48242 88.4473 10.4082C87.7676 11.3223 86.8418 12.0312 85.6699 12.5352C87.0527 12.9219 88.1426 13.6602 88.9395 14.75C89.748 15.8281 90.1523 17.1172 90.1523 18.6172C90.1523 20.9141 89.4082 22.7188 87.9199 24.0312C86.4316 25.3438 84.3281 26 81.6094 26H72.7324ZM76.1074 14.0293V23.2402H81.6797C83.25 23.2402 84.4863 22.8359 85.3887 22.0273C86.3027 21.207 86.7598 20.082 86.7598 18.6523C86.7598 15.5703 85.084 14.0293 81.7324 14.0293H76.1074ZM76.1074 11.3223H81.2051C82.6816 11.3223 83.8594 10.9531 84.7383 10.2148C85.6289 9.47656 86.0742 8.47461 86.0742 7.20898C86.0742 5.80273 85.6641 4.7832 84.8438 4.15039C84.0234 3.50586 82.7754 3.18359 81.0996 3.18359H76.1074V11.3223ZM93.791 16.3145C93.791 14.4512 94.1543 12.7754 94.8809 11.2871C95.6191 9.79883 96.6387 8.65039 97.9395 7.8418C99.252 7.0332 100.746 6.62891 102.422 6.62891C105.012 6.62891 107.104 7.52539 108.697 9.31836C110.303 11.1113 111.105 13.4961 111.105 16.4727V16.7012C111.105 18.5527 110.748 20.2168 110.033 21.6934C109.33 23.1582 108.316 24.3008 106.992 25.1211C105.68 25.9414 104.168 26.3516 102.457 26.3516C99.8789 26.3516 97.7871 25.4551 96.1816 23.6621C94.5879 21.8691 93.791 19.4961 93.791 16.543V16.3145ZM97.0605 16.7012C97.0605 18.8105 97.5469 20.5039 98.5195 21.7812C99.5039 23.0586 100.816 23.6973 102.457 23.6973C104.109 23.6973 105.422 23.0527 106.395 21.7637C107.367 20.4629 107.854 18.6465 107.854 16.3145C107.854 14.2285 107.355 12.541 106.359 11.252C105.375 9.95117 104.062 9.30078 102.422 9.30078C100.816 9.30078 99.5215 9.93945 98.5371 11.2168C97.5527 12.4941 97.0605 14.3223 97.0605 16.7012ZM121.178 13.9238L125.396 6.98047H129.193L122.971 16.3848L129.387 26H125.625L121.23 18.8809L116.836 26H113.057L119.473 16.3848L113.25 6.98047H117.012L121.178 13.9238Z" fill="#FA5757"/>
<path d="M13.5117 14.5918L13.7897 13.6312L13.788 13.6307L13.5117 14.5918ZM7.18359 11.5332L6.50311 12.266L6.50994 12.2723L7.18359 11.5332ZM7.62305 2.04102L8.25598 2.81522L8.25659 2.81472L7.62305 2.04102ZM18.6094 1.07422L18.1652 1.97018L18.1683 1.97167L18.6094 1.07422ZM21.8086 3.88672L20.9615 4.41822L20.9653 4.42413L21.8086 3.88672ZM22.9512 7.80664V8.80664H23.9512V7.80664H22.9512ZM19.5586 7.80664H18.5586V8.80664H19.5586V7.80664ZM18.082 4.16797L17.4111 4.90952L17.416 4.91391L18.082 4.16797ZM10.0137 3.93945L10.6311 4.72612L10.6324 4.72509L10.0137 3.93945ZM9.94336 9.63477L9.30621 10.4055L9.31178 10.4101L9.31741 10.4146L9.94336 9.63477ZM14.4609 11.6035L14.1897 12.566L14.1911 12.5664L14.4609 11.6035ZM19.4531 13.5898L18.9337 14.4444L18.9436 14.4503L19.4531 13.5898ZM22.125 16.1035L21.2666 16.6165L21.2712 16.6241L22.125 16.1035ZM20.5781 24.4883L21.1873 25.2813L21.1909 25.2786L20.5781 24.4883ZM9.16992 25.3496L8.76247 26.2629L8.76836 26.2654L9.16992 25.3496ZM5.63672 22.5723L4.81747 23.1457L4.82134 23.1512L5.63672 22.5723ZM4.40625 18.582V17.582H3.40625V18.582H4.40625ZM7.79883 18.582H8.79883V17.582H7.79883V18.582ZM9.50391 22.2559L8.88213 23.0391L8.89108 23.0461L9.50391 22.2559ZM18.293 16.6309L17.6747 17.4168L17.6812 17.4219L18.293 16.6309ZM13.788 13.6307C10.9533 12.8159 9.01547 11.8499 7.85724 10.7942L6.50994 12.2723C8.00015 13.6306 10.281 14.7036 13.2355 15.5529L13.788 13.6307ZM7.86404 10.8004C6.75403 9.76968 6.21484 8.53464 6.21484 7.0332H4.21484C4.21484 9.09427 4.98816 10.8592 6.50314 12.266L7.86404 10.8004ZM6.21484 7.0332C6.21484 5.32751 6.87508 3.94413 8.25598 2.81522L6.99012 1.26681C5.16007 2.7629 4.21484 4.70764 4.21484 7.0332H6.21484ZM8.25659 2.81472C9.65633 1.66856 11.5133 1.05469 13.916 1.05469V-0.945312C11.1625 -0.945312 8.82413 -0.234962 6.9895 1.26731L8.25659 2.81472ZM13.916 1.05469C15.5427 1.05469 16.9514 1.36844 18.1652 1.97017L19.0535 0.178265C17.5252 -0.579376 15.805 -0.945312 13.916 -0.945312V1.05469ZM18.1683 1.97167C19.4003 2.57723 20.3192 3.39454 20.9615 4.41821L22.6557 3.35523C21.798 1.98827 20.5841 0.930582 19.0505 0.17677L18.1683 1.97167ZM20.9653 4.42413C21.6246 5.4588 21.9512 6.57899 21.9512 7.80664H23.9512C23.9512 6.19835 23.516 4.70526 22.6519 3.34931L20.9653 4.42413ZM22.9512 6.80664H19.5586V8.80664H22.9512V6.80664ZM20.5586 7.80664C20.5586 6.02877 19.982 4.52381 18.748 3.42203L17.416 4.91391C18.1508 5.56994 18.5586 6.49076 18.5586 7.80664H20.5586ZM18.7529 3.42643C17.5284 2.31856 15.8688 1.83203 13.916 1.83203V3.83203C15.5491 3.83203 16.6669 4.23613 17.4111 4.9095L18.7529 3.42643ZM13.916 1.83203C12.1146 1.83203 10.5668 2.23102 9.39498 3.15382L10.6324 4.72509C11.3356 4.17133 12.3894 3.83203 13.916 3.83203V1.83203ZM9.39629 3.15279C8.2013 4.09063 7.625 5.40959 7.625 6.98047H9.625C9.625 5.94978 9.97448 5.2414 10.6311 4.72612L9.39629 3.15279ZM7.625 6.98047C7.625 8.35184 8.22187 9.50912 9.30621 10.4055L10.5805 8.86402C9.90703 8.30728 9.625 7.69503 9.625 6.98047H7.625ZM9.31741 10.4146C10.3704 11.2598 12.0371 11.9595 14.1897 12.566L14.7321 10.641C12.6425 10.0522 11.2976 9.43944 10.5693 8.8549L9.31741 10.4146ZM14.1911 12.5664C16.2809 13.152 17.8479 13.7844 18.9337 14.4444L19.9725 12.7353C18.6677 11.9422 16.9066 11.2503 14.7308 10.6406L14.1911 12.5664ZM18.9436 14.4503C20.0428 15.1013 20.7969 15.8304 21.2666 16.6165L22.9834 15.5906C22.3047 14.4547 21.2775 13.5081 19.9627 12.7294L18.9436 14.4503ZM21.2712 16.6241C21.7474 17.4051 22.0039 18.3499 22.0039 19.4961H24.0039C24.0039 18.0408 23.6744 16.7238 22.9788 15.5829L21.2712 16.6241ZM22.0039 19.4961C22.0039 21.2661 21.3344 22.6365 19.9654 23.698L21.1909 25.2786C23.0562 23.8322 24.0039 21.8745 24.0039 19.4961H22.0039ZM19.969 23.6952C18.5761 24.7651 16.6505 25.3516 14.0918 25.3516V27.3516C16.9472 27.3516 19.3458 26.6958 21.1873 25.2813L19.969 23.6952ZM14.0918 25.3516C12.4642 25.3516 10.9612 25.0431 9.57148 24.4338L8.76836 26.2654C10.4255 26.992 12.2037 27.3516 14.0918 27.3516V25.3516ZM9.57736 24.4364C8.19076 23.8177 7.16486 22.9972 6.4521 21.9933L4.82134 23.1512C5.77264 24.4911 7.10221 25.5221 8.76248 26.2628L9.57736 24.4364ZM6.45595 21.9988C5.75825 21.0021 5.40625 19.874 5.40625 18.582H3.40625C3.40625 20.2667 3.87456 21.7987 4.81749 23.1457L6.45595 21.9988ZM4.40625 19.582H7.79883V17.582H4.40625V19.582ZM6.79883 18.582C6.79883 20.4109 7.48892 21.9331 8.88217 23.0391L10.1256 21.4726C9.24546 20.7739 8.79883 19.8469 8.79883 18.582H6.79883ZM8.89108 23.0461C10.2631 24.1101 12.0296 24.5918 14.0918 24.5918V22.5918C12.3336 22.5918 11.0416 22.1829 10.1167 21.4656L8.89108 23.0461ZM14.0918 24.5918C15.9899 24.5918 17.6045 24.2075 18.7953 23.296L17.5797 21.7079C16.872 22.2495 15.7562 22.5918 14.0918 22.5918V24.5918ZM18.7953 23.296C20.0055 22.3697 20.6113 21.0787 20.6113 19.5312H18.6113C18.6113 20.4916 18.2679 21.1811 17.5797 21.7079L18.7953 23.296ZM20.6113 19.5312C20.6113 18.0131 20.0623 16.735 18.9047 15.8398L17.6812 17.4219C18.2815 17.8861 18.6113 18.5416 18.6113 19.5312H20.6113ZM18.9113 15.8449C17.8693 15.0252 16.1125 14.3033 13.7897 13.6312L13.2338 15.5524C15.5282 16.2163 16.9589 16.8537 17.6747 17.4168L18.9113 15.8449ZM27.0645 11.2871L26.1686 10.8427L26.1658 10.8484L27.0645 11.2871ZM30.123 7.8418L29.5985 6.99039L29.5951 6.99251L30.123 7.8418ZM40.8809 9.31836L40.1334 9.98273L40.1359 9.98544L40.8809 9.31836ZM42.2168 21.6934L41.3167 21.2576L41.3153 21.2606L42.2168 21.6934ZM39.1758 25.1211L38.6492 24.271L38.6458 24.2731L39.1758 25.1211ZM28.3652 23.6621L27.6178 24.3265L27.6202 24.3292L28.3652 23.6621ZM30.7031 21.7812L29.9075 22.3871L29.911 22.3917L30.7031 21.7812ZM38.5781 21.7637L39.3764 22.366L39.379 22.3625L38.5781 21.7637ZM38.543 11.252L37.7455 11.8554L37.7517 11.8634L38.543 11.252ZM26.9746 16.3145C26.9746 14.5841 27.3111 13.0612 27.9631 11.7258L26.1658 10.8484C25.3646 12.4895 24.9746 14.3183 24.9746 16.3145H26.9746ZM27.9603 11.7315C28.6232 10.3951 29.5214 9.39325 30.651 8.69108L29.5951 6.99251C28.1231 7.90753 26.9823 9.20254 26.1686 10.8427L27.9603 11.7315ZM30.6476 8.69319C31.7887 7.99017 33.0982 7.62891 34.6055 7.62891V5.62891C32.7612 5.62891 31.0824 6.07624 29.5985 6.9904L30.6476 8.69319ZM34.6055 7.62891C36.9353 7.62891 38.7458 8.42166 40.1334 9.98272L41.6283 8.654C39.8284 6.62913 37.4554 5.62891 34.6055 5.62891V7.62891ZM40.1359 9.98544C41.5407 11.5543 42.2891 13.6815 42.2891 16.4727H44.2891C44.2891 13.3107 43.432 10.6684 41.6258 8.65128L40.1359 9.98544ZM42.2891 16.4727V16.7012H44.2891V16.4727H42.2891ZM42.2891 16.7012C42.2891 18.4213 41.9578 19.9334 41.3167 21.2576L43.1169 22.1291C43.9055 20.5001 44.2891 18.6841 44.2891 16.7012H42.2891ZM41.3153 21.2606C40.691 22.5612 39.8039 23.5556 38.6492 24.271L39.7024 25.9712C41.1961 25.0459 42.3364 23.7552 43.1183 22.1261L41.3153 21.2606ZM38.6458 24.2731C37.5087 24.9838 36.1846 25.3516 34.6406 25.3516V27.3516C36.5186 27.3516 38.2179 26.899 39.7058 25.9691L38.6458 24.2731ZM34.6406 25.3516C32.324 25.3516 30.5113 24.5597 29.1102 22.995L27.6202 24.3292C29.4301 26.3504 31.801 27.3516 34.6406 27.3516V25.3516ZM29.1126 22.9977C27.717 21.4276 26.9746 19.3102 26.9746 16.543H24.9746C24.9746 19.682 25.826 22.3107 27.6178 24.3265L29.1126 22.9977ZM26.9746 16.543V16.3145H24.9746V16.543H26.9746ZM28.2441 16.7012C28.2441 18.9607 28.7659 20.8879 29.9075 22.3871L31.4987 21.1754C30.695 20.1199 30.2441 18.6604 30.2441 16.7012H28.2441ZM29.911 22.3917C31.0886 23.9196 32.6962 24.6973 34.6406 24.6973V22.6973C33.3038 22.6973 32.2864 22.1976 31.4952 21.1708L29.911 22.3917ZM34.6406 24.6973C36.5981 24.6973 38.2097 23.9123 39.3764 22.366L37.7799 21.1614C37.0013 22.1932 35.9878 22.6973 34.6406 22.6973V24.6973ZM39.379 22.3625C40.5264 20.828 41.0371 18.7715 41.0371 16.3145H39.0371C39.0371 18.5215 38.5751 20.0978 37.7773 21.1648L39.379 22.3625ZM41.0371 16.3145C41.0371 14.0699 40.4996 12.1486 39.3343 10.6405L37.7517 11.8634C38.5786 12.9335 39.0371 14.3871 39.0371 16.3145H41.0371ZM39.3404 10.6485C38.1657 9.09626 36.5572 8.30078 34.6055 8.30078V10.3008C35.935 10.3008 36.9515 10.8061 37.7456 11.8554L39.3404 10.6485ZM34.6055 8.30078C32.6882 8.30078 31.1013 9.08466 29.9286 10.6064L31.5128 11.8272C32.3088 10.7942 33.3118 10.3008 34.6055 10.3008V8.30078ZM29.9286 10.6064C28.7587 12.1245 28.2441 14.2021 28.2441 16.7012H30.2441C30.2441 14.4424 30.7139 12.8638 31.5128 11.8272L29.9286 10.6064ZM56.5605 9.89844L56.3961 10.8848L57.5605 11.0789V9.89844H56.5605ZM50.6191 12.5L49.6969 12.1133L49.6191 12.2988V12.5H50.6191ZM50.6191 26V27H51.6191V26H50.6191ZM47.3672 26H46.3672V27H47.3672V26ZM47.3672 6.98047V5.98047H46.3672V6.98047H47.3672ZM50.5312 6.98047L51.531 6.95648L51.5075 5.98047H50.5312V6.98047ZM50.584 9.17773L49.5843 9.20173L49.664 12.5248L51.431 9.70931L50.584 9.17773ZM56.5605 6.875H57.5605V6.25697L57.0078 5.98057L56.5605 6.875ZM56.7249 8.91204C56.171 8.81973 55.5822 8.77539 54.9609 8.77539V10.7754C55.4881 10.7754 55.9657 10.8131 56.3961 10.8848L56.7249 8.91204ZM54.9609 8.77539C53.753 8.77539 52.6625 9.03333 51.7443 9.60951C50.8205 10.1892 50.1449 11.0451 49.6969 12.1133L51.5413 12.8867C51.8551 12.1385 52.284 11.632 52.8074 11.3036C53.3365 10.9716 54.0361 10.7754 54.9609 10.7754V8.77539ZM49.6191 12.5V26H51.6191V12.5H49.6191ZM50.6191 25H47.3672V27H50.6191V25ZM48.3672 26V6.98047H46.3672V26H48.3672ZM47.3672 7.98047H50.5312V5.98047H47.3672V7.98047ZM49.5315 7.00446L49.5843 9.20173L51.5837 9.15374L51.531 6.95648L49.5315 7.00446ZM51.431 9.70931C52.3201 8.29267 53.5166 7.62891 55.1191 7.62891V5.62891C52.8076 5.62891 50.9807 6.66436 49.737 8.64616L51.431 9.70931ZM55.1191 7.62891C55.694 7.62891 55.9907 7.70809 56.1133 7.76943L57.0078 5.98057C56.4742 5.71378 55.8099 5.62891 55.1191 5.62891V7.62891ZM55.5605 6.875V9.89844H57.5605V6.875H55.5605ZM64.8574 2.375H65.8574V1.375H64.8574V2.375ZM64.8574 6.98047H63.8574V7.98047H64.8574V6.98047ZM68.4082 6.98047H69.4082V5.98047H68.4082V6.98047ZM68.4082 9.49414V10.4941H69.4082V9.49414H68.4082ZM64.8574 9.49414V8.49414H63.8574V9.49414H64.8574ZM65.332 23.0117L64.5581 23.645L64.5629 23.6508L64.5677 23.6566L65.332 23.0117ZM68.4961 23.3633H69.4961V22.1263L68.2866 22.3855L68.4961 23.3633ZM68.4961 26L68.7603 26.9645L69.4961 26.7629V26H68.4961ZM61.6055 9.49414H62.6055V8.49414H61.6055V9.49414ZM58.1426 9.49414H57.1426V10.4941H58.1426V9.49414ZM58.1426 6.98047V5.98047H57.1426V6.98047H58.1426ZM61.6055 6.98047V7.98047H62.6055V6.98047H61.6055ZM61.6055 2.375V1.375H60.6055V2.375H61.6055ZM63.8574 2.375V6.98047H65.8574V2.375H63.8574ZM64.8574 7.98047H68.4082V5.98047H64.8574V7.98047ZM67.4082 6.98047V9.49414H69.4082V6.98047H67.4082ZM68.4082 8.49414H64.8574V10.4941H68.4082V8.49414ZM63.8574 9.49414V21.2891H65.8574V9.49414H63.8574ZM63.8574 21.2891C63.8574 22.1661 64.0361 23.0069 64.5581 23.645L66.106 22.3785C65.9952 22.2431 65.8574 21.9355 65.8574 21.2891H63.8574ZM64.5677 23.6566C65.1588 24.3571 66.0559 24.5742 66.9492 24.5742V22.5742C66.3191 22.5742 66.1381 22.4164 66.0963 22.3668L64.5677 23.6566ZM66.9492 24.5742C67.4292 24.5742 68.0254 24.4869 68.7056 24.3411L68.2866 22.3855C67.6543 22.521 67.2193 22.5742 66.9492 22.5742V24.5742ZM67.4961 23.3633V26H69.4961V23.3633H67.4961ZM68.2319 25.0355C67.4542 25.2486 66.7112 25.3516 66 25.3516V27.3516C66.906 27.3516 67.827 27.2202 68.7603 26.9645L68.2319 25.0355ZM66 25.3516C64.7572 25.3516 63.9782 24.9848 63.4786 24.39L61.9472 25.6764C62.9241 26.8394 64.3365 27.3516 66 27.3516V25.3516ZM63.4786 24.39C62.9432 23.7526 62.6055 22.766 62.6055 21.2891H60.6055C60.6055 23.0465 61.006 24.556 61.9472 25.6764L63.4786 24.39ZM62.6055 21.2891V9.49414H60.6055V21.2891H62.6055ZM61.6055 8.49414H58.1426V10.4941H61.6055V8.49414ZM59.1426 9.49414V6.98047H57.1426V9.49414H59.1426ZM58.1426 7.98047H61.6055V5.98047H58.1426V7.98047ZM62.6055 6.98047V2.375H60.6055V6.98047H62.6055ZM61.6055 3.375H64.8574V1.375H61.6055V3.375ZM72.7324 26H71.7324V27H72.7324V26ZM72.7324 0.40625V-0.59375H71.7324V0.40625H72.7324ZM87.3574 2.12891L86.7217 2.90084L86.7249 2.90344L87.3574 2.12891ZM88.4473 10.4082L89.2497 11.0049L89.2533 11L88.4473 10.4082ZM85.6699 12.5352L85.2749 11.6165L82.6729 12.7354L85.4006 13.4982L85.6699 12.5352ZM88.9395 14.75L88.1322 15.3403L88.1395 15.35L88.9395 14.75ZM76.1074 14.0293V13.0293H75.1074V14.0293H76.1074ZM76.1074 23.2402H75.1074V24.2402H76.1074V23.2402ZM85.3887 22.0273L86.056 22.7721L86.0566 22.7716L85.3887 22.0273ZM76.1074 11.3223H75.1074V12.3223H76.1074V11.3223ZM84.7383 10.2148L84.1001 9.44495L84.0951 9.44914L84.7383 10.2148ZM84.8438 4.15039L84.2259 4.93674L84.2329 4.94217L84.8438 4.15039ZM76.1074 3.18359V2.18359H75.1074V3.18359H76.1074ZM73.7324 26V0.40625H71.7324V26H73.7324ZM72.7324 1.40625H81.0996V-0.59375H72.7324V1.40625ZM81.0996 1.40625C83.7637 1.40625 85.5803 1.96085 86.7217 2.90084L87.9931 1.35698C86.3455 8.24928e-05 83.9902 -0.59375 81.0996 -0.59375V1.40625ZM86.7249 2.90344C87.8438 3.81722 88.4668 5.19811 88.4668 7.22656H90.4668C90.4668 4.75501 89.6835 2.73747 87.99 1.35437L86.7249 2.90344ZM88.4668 7.22656C88.4668 8.21827 88.1895 9.06954 87.6412 9.8164L89.2533 11C90.0644 9.8953 90.4668 8.62548 90.4668 7.22656H88.4668ZM87.6448 9.8115C87.0824 10.5679 86.3048 11.1736 85.2749 11.6165L86.0649 13.4538C87.3788 12.8889 88.4528 12.0767 89.2497 11.0049L87.6448 9.8115ZM85.4006 13.4982C86.5821 13.8286 87.4765 14.4434 88.1322 15.3402L89.7467 14.1598C88.8087 12.8769 87.5234 12.0151 85.9392 11.5721L85.4006 13.4982ZM88.1395 15.35C88.8036 16.2355 89.1523 17.3078 89.1523 18.6172H91.1523C91.1523 16.9265 90.6925 15.4207 89.7395 14.15L88.1395 15.35ZM89.1523 18.6172C89.1523 20.677 88.4967 22.1893 87.2585 23.2812L88.5813 24.7813C90.3197 23.2482 91.1523 21.1511 91.1523 18.6172H89.1523ZM87.2585 23.2812C86.011 24.3814 84.1751 25 81.6094 25V27C84.4812 27 86.8523 26.3061 88.5813 24.7813L87.2585 23.2812ZM81.6094 25H72.7324V27H81.6094V25ZM75.1074 14.0293V23.2402H77.1074V14.0293H75.1074ZM76.1074 24.2402H81.6797V22.2402H76.1074V24.2402ZM81.6797 24.2402C83.4215 24.2402 84.9213 23.7889 86.056 22.7721L84.7213 21.2826C84.0514 21.8829 83.0785 22.2402 81.6797 22.2402V24.2402ZM86.0566 22.7716C87.2173 21.7299 87.7598 20.3148 87.7598 18.6523H85.7598C85.7598 19.8493 85.3881 20.6842 84.7208 21.2831L86.0566 22.7716ZM87.7598 18.6523C87.7598 16.9346 87.2889 15.4689 86.1798 14.449C85.0866 13.4437 83.5425 13.0293 81.7324 13.0293V15.0293C83.2739 15.0293 84.2435 15.3854 84.826 15.9211C85.3927 16.4423 85.7598 17.288 85.7598 18.6523H87.7598ZM81.7324 13.0293H76.1074V15.0293H81.7324V13.0293ZM76.1074 12.3223H81.2051V10.3223H76.1074V12.3223ZM81.2051 12.3223C82.8482 12.3223 84.276 11.9092 85.3815 10.9805L84.0951 9.44914C83.4428 9.99709 82.5151 10.3223 81.2051 10.3223V12.3223ZM85.3765 10.9847C86.5197 10.0371 87.0742 8.74051 87.0742 7.20898H85.0742C85.0742 8.2087 84.7381 8.91606 84.1001 9.44496L85.3765 10.9847ZM87.0742 7.20898C87.0742 5.6115 86.6011 4.24309 85.4546 3.35861L84.2329 4.94217C84.727 5.32332 85.0742 5.99397 85.0742 7.20898H87.0742ZM85.4616 3.36407C84.3864 2.51932 82.8732 2.18359 81.0996 2.18359V4.18359C82.6776 4.18359 83.6604 4.4924 84.2259 4.93671L85.4616 3.36407ZM81.0996 2.18359H76.1074V4.18359H81.0996V2.18359ZM75.1074 3.18359V11.3223H77.1074V3.18359H75.1074ZM94.8809 11.2871L93.985 10.8427L93.9822 10.8484L94.8809 11.2871ZM97.9395 7.8418L97.4149 6.99039L97.4115 6.99251L97.9395 7.8418ZM108.697 9.31836L107.95 9.98273L107.952 9.98544L108.697 9.31836ZM110.033 21.6934L109.133 21.2576L109.132 21.2606L110.033 21.6934ZM106.992 25.1211L106.466 24.271L106.462 24.2731L106.992 25.1211ZM96.1816 23.6621L95.4342 24.3265L95.4367 24.3292L96.1816 23.6621ZM98.5195 21.7812L97.7239 22.3871L97.7274 22.3917L98.5195 21.7812ZM106.395 21.7637L107.193 22.366L107.195 22.3625L106.395 21.7637ZM106.359 11.252L105.562 11.8554L105.568 11.8634L106.359 11.252ZM94.791 16.3145C94.791 14.5841 95.1275 13.0612 95.7795 11.7258L93.9822 10.8484C93.181 12.4895 92.791 14.3183 92.791 16.3145H94.791ZM95.7767 11.7315C96.4396 10.3951 97.3378 9.39325 98.4674 8.69108L97.4115 6.99251C95.9395 7.90753 94.7987 9.20254 93.985 10.8427L95.7767 11.7315ZM98.464 8.69319C99.6051 7.99017 100.915 7.62891 102.422 7.62891V5.62891C100.578 5.62891 98.8988 6.07624 97.4149 6.9904L98.464 8.69319ZM102.422 7.62891C104.752 7.62891 106.562 8.42166 107.95 9.98272L109.445 8.654C107.645 6.62913 105.272 5.62891 102.422 5.62891V7.62891ZM107.952 9.98544C109.357 11.5543 110.105 13.6815 110.105 16.4727H112.105C112.105 13.3107 111.248 10.6684 109.442 8.65128L107.952 9.98544ZM110.105 16.4727V16.7012H112.105V16.4727H110.105ZM110.105 16.7012C110.105 18.4213 109.774 19.9334 109.133 21.2576L110.933 22.1291C111.722 20.5001 112.105 18.6841 112.105 16.7012H110.105ZM109.132 21.2606C108.507 22.5612 107.62 23.5556 106.466 24.271L107.519 25.9712C109.012 25.0459 110.153 23.7552 110.935 22.1261L109.132 21.2606ZM106.462 24.2731C105.325 24.9838 104.001 25.3516 102.457 25.3516V27.3516C104.335 27.3516 106.034 26.899 107.522 25.9691L106.462 24.2731ZM102.457 25.3516C100.14 25.3516 98.3277 24.5597 96.9266 22.995L95.4367 24.3292C97.2465 26.3504 99.6174 27.3516 102.457 27.3516V25.3516ZM96.929 22.9977C95.5334 21.4276 94.791 19.3102 94.791 16.543H92.791C92.791 19.682 93.6424 22.3107 95.4342 24.3265L96.929 22.9977ZM94.791 16.543V16.3145H92.791V16.543H94.791ZM96.0605 16.7012C96.0605 18.9607 96.5824 20.8879 97.7239 22.3871L99.3151 21.1754C98.5114 20.1199 98.0605 18.6604 98.0605 16.7012H96.0605ZM97.7274 22.3917C98.905 23.9196 100.513 24.6973 102.457 24.6973V22.6973C101.12 22.6973 100.103 22.1976 99.3116 21.1708L97.7274 22.3917ZM102.457 24.6973C104.415 24.6973 106.026 23.9123 107.193 22.366L105.596 21.1614C104.818 22.1932 103.804 22.6973 102.457 22.6973V24.6973ZM107.195 22.3625C108.343 20.828 108.854 18.7715 108.854 16.3145H106.854C106.854 18.5215 106.392 20.0978 105.594 21.1648L107.195 22.3625ZM108.854 16.3145C108.854 14.0699 108.316 12.1486 107.151 10.6405L105.568 11.8634C106.395 12.9335 106.854 14.3871 106.854 16.3145H108.854ZM107.157 10.6485C105.982 9.09626 104.374 8.30078 102.422 8.30078V10.3008C103.751 10.3008 104.768 10.8061 105.562 11.8554L107.157 10.6485ZM102.422 8.30078C100.505 8.30078 98.9177 9.08466 97.745 10.6064L99.3292 11.8272C100.125 10.7942 101.128 10.3008 102.422 10.3008V8.30078ZM97.745 10.6064C96.5751 12.1245 96.0605 14.2021 96.0605 16.7012H98.0605C98.0605 14.4424 98.5303 12.8638 99.3292 11.8272L97.745 10.6064ZM121.178 13.9238L120.32 14.4383L121.172 15.8585L122.032 14.4431L121.178 13.9238ZM125.396 6.98047V5.98047H124.834L124.542 6.46121L125.396 6.98047ZM129.193 6.98047L130.027 7.53229L131.054 5.98047H129.193V6.98047ZM122.971 16.3848L122.137 15.8329L121.77 16.3871L122.139 16.9398L122.971 16.3848ZM129.387 26V27H131.256L130.219 25.445L129.387 26ZM125.625 26L124.774 26.5253L125.067 27H125.625V26ZM121.23 18.8809L122.081 18.3556L121.23 16.9771L120.38 18.3556L121.23 18.8809ZM116.836 26V27H117.394L117.687 26.5253L116.836 26ZM113.057 26L112.225 25.445L111.187 27H113.057V26ZM119.473 16.3848L120.304 16.9398L120.673 16.3871L120.307 15.8329L119.473 16.3848ZM113.25 6.98047V5.98047H111.389L112.416 7.53229L113.25 6.98047ZM117.012 6.98047L117.869 6.46597L117.578 5.98047H117.012V6.98047ZM122.032 14.4431L126.251 7.49973L124.542 6.46121L120.323 13.4046L122.032 14.4431ZM125.396 7.98047H129.193V5.98047H125.396V7.98047ZM128.359 6.42865L122.137 15.8329L123.805 16.9366L130.027 7.53229L128.359 6.42865ZM122.139 16.9398L128.555 26.555L130.219 25.445L123.803 15.8297L122.139 16.9398ZM129.387 25H125.625V27H129.387V25ZM126.476 25.4747L122.081 18.3556L120.38 19.4061L124.774 26.5253L126.476 25.4747ZM120.38 18.3556L115.985 25.4747L117.687 26.5253L122.081 19.4061L120.38 18.3556ZM116.836 25H113.057V27H116.836V25ZM113.888 26.555L120.304 16.9398L118.641 15.8297L112.225 25.445L113.888 26.555ZM120.307 15.8329L114.084 6.42865L112.416 7.53229L118.639 16.9366L120.307 15.8329ZM113.25 7.98047H117.012V5.98047H113.25V7.98047ZM116.154 7.49496L120.32 14.4383L122.035 13.4093L117.869 6.46597L116.154 7.49496Z" fill="white"/>
</g>
<defs>
<filter id="filter0_d_3_5" x="0.40625" y="0.0546875" width="132.98" height="34.2969" filterUnits="userSpaceOnUse" color-interpolation-filters="sRGB">
<feFlood flood-opacity="0" result="BackgroundImageFix"/>
<feColorMatrix in="SourceAlpha" type="matrix" values="0 0 0 0 0 0 0 0 0 0 0 0 0 0 0 0 0 0 127 0" result="hardAlpha"/>
<feOffset dy="4"/>
<feGaussianBlur stdDeviation="2"/>
<feComposite in2="hardAlpha" operator="out"/>
<feColorMatrix type="matrix" values="0 0 0 0 0 0 0 0 0 0 0 0 0 0 0 0 0 0 0.25 0"/>
<feBlend mode="normal" in2="BackgroundImageFix" result="effect1_dropShadow_3_5"/>
<feBlend mode="normal" in="SourceGraphic" in2="effect1_dropShadow_3_5" result="shape"/>
</filter>
</defs>
</svg>
