<svg width="51" height="44" viewBox="0 0 51 44" fill="none" xmlns="http://www.w3.org/2000/svg">
<path fill-rule="evenodd" clip-rule="evenodd" d="M14.8156 0.132C17.5037 0.024 18.3608 0 25.2083 0C32.0558 0 32.9129 0.026 35.5987 0.132C38.2846 0.238 40.1179 0.612 41.7221 1.154C43.4019 1.708 44.9258 2.574 46.1862 3.694C47.4696 4.792 48.4596 6.12 49.0921 7.588C49.7154 8.988 50.1417 10.588 50.2654 12.928C50.3892 15.278 50.4167 16.026 50.4167 22C50.4167 27.976 50.3869 28.724 50.2654 31.07C50.144 33.41 49.7154 35.01 49.0921 36.41C48.4596 37.8782 47.4679 39.2084 46.1862 40.308C44.9258 41.428 43.4019 42.292 41.7221 42.844C40.1179 43.388 38.2846 43.76 35.6033 43.868C32.9129 43.976 32.0558 44 25.2083 44C18.3608 44 17.5037 43.974 14.8156 43.868C12.1344 43.762 10.301 43.388 8.69687 42.844C7.01461 42.2919 5.49042 41.4265 4.23042 40.308C2.94795 39.2093 1.95551 37.8798 1.32229 36.412C0.70125 35.012 0.275 33.412 0.15125 31.072C0.0275 28.722 0 27.974 0 22C0 16.024 0.0297916 15.276 0.15125 12.932C0.272708 10.588 0.70125 8.988 1.32229 7.588C1.95645 6.12016 2.94965 4.79063 4.23271 3.692C5.49093 2.573 7.01358 1.70689 8.69458 1.154C10.2987 0.612 12.1321 0.24 14.8133 0.132H14.8156ZM35.3948 4.092C32.7365 3.986 31.939 3.964 25.2083 3.964C18.4777 3.964 17.6802 3.986 15.0219 4.092C12.5629 4.19 11.2292 4.548 10.34 4.85C9.16437 5.25 8.32333 5.724 7.44104 6.494C6.60469 7.2041 5.96104 8.06856 5.55729 9.024C5.21125 9.8 4.80104 10.964 4.68875 13.11C4.56729 15.43 4.54208 16.126 4.54208 22C4.54208 27.874 4.56729 28.57 4.68875 30.89C4.80104 33.036 5.21125 34.2 5.55729 34.976C5.96062 35.93 6.60458 36.796 7.44104 37.506C8.25458 38.236 9.24687 38.798 10.34 39.15C11.2292 39.452 12.5629 39.81 15.0219 39.908C17.6802 40.014 18.4754 40.036 25.2083 40.036C31.9412 40.036 32.7365 40.014 35.3948 39.908C37.8537 39.81 39.1875 39.452 40.0767 39.15C41.2523 38.75 42.0933 38.276 42.9756 37.506C43.8121 36.796 44.456 35.93 44.8594 34.976C45.2054 34.2 45.6156 33.036 45.7279 30.89C45.8494 28.57 45.8746 27.874 45.8746 22C45.8746 16.126 45.8494 15.43 45.7279 13.11C45.6156 10.964 45.2054 9.8 44.8594 9.024C44.401 7.998 43.8579 7.264 42.9756 6.494C42.1619 5.76414 41.1714 5.20242 40.0767 4.85C39.1875 4.548 37.8537 4.19 35.3948 4.092ZM21.9885 28.782C23.7867 29.4353 25.789 29.5234 27.6534 29.0314C29.5178 28.5395 31.1286 27.4978 32.2108 26.0845C33.2929 24.6711 33.7793 22.9737 33.5868 21.2822C33.3943 19.5907 32.5348 18.0099 31.1552 16.81C30.2757 16.043 29.2124 15.4556 28.0416 15.0903C26.8708 14.725 25.6218 14.5907 24.3845 14.6972C23.1471 14.8037 21.9522 15.1484 20.8858 15.7063C19.8194 16.2642 18.908 17.0215 18.2172 17.9237C17.5263 18.8259 17.0733 19.8506 16.8908 20.9239C16.7082 21.9973 16.8006 23.0926 17.1612 24.131C17.5219 25.1695 18.1419 26.1252 18.9767 26.9294C19.8114 27.7337 20.84 28.3664 21.9885 28.782ZM16.0462 14.004C17.2494 12.9539 18.6778 12.121 20.2498 11.5527C21.8219 10.9844 23.5068 10.6919 25.2083 10.6919C26.9099 10.6919 28.5948 10.9844 30.1668 11.5527C31.7388 12.121 33.1672 12.9539 34.3704 14.004C35.5736 15.054 36.528 16.3006 37.1792 17.6726C37.8303 19.0446 38.1655 20.515 38.1655 22C38.1655 23.485 37.8303 24.9554 37.1792 26.3274C36.528 27.6994 35.5736 28.946 34.3704 29.996C31.9405 32.1167 28.6448 33.3081 25.2083 33.3081C21.7719 33.3081 18.4762 32.1167 16.0462 29.996C13.6163 27.8753 12.2512 24.9991 12.2512 22C12.2512 19.0009 13.6163 16.1247 16.0462 14.004ZM41.0392 12.376C41.3373 12.1305 41.576 11.8354 41.7411 11.5079C41.9062 11.1805 41.9944 10.8275 42.0003 10.4699C42.0063 10.1122 41.93 9.7571 41.7759 9.42562C41.6218 9.09414 41.3931 8.79302 41.1032 8.54008C40.8134 8.28714 40.4684 8.08751 40.0886 7.95304C39.7087 7.81856 39.3019 7.75195 38.892 7.75717C38.4822 7.76238 38.0777 7.83931 37.7026 7.98339C37.3274 8.12748 36.9892 8.33579 36.7079 8.596C36.1609 9.10206 35.8614 9.77424 35.8731 10.4699C35.8847 11.1655 36.2065 11.8298 36.7701 12.3217C37.3338 12.8136 38.095 13.0945 38.892 13.1046C39.6891 13.1147 40.4593 12.8534 41.0392 12.376Z" fill="#F24E1E"/>
</svg>
