<svg width="92" height="64" viewBox="0 0 92 64" fill="none" xmlns="http://www.w3.org/2000/svg">
<g clip-path="url(#clip0_42_228)">
<path d="M86.2476 64H23.0014C21.3843 64 20.0217 63.615 18.9137 62.8449C17.8057 62.0748 17.2517 61.1278 17.2517 60.0039V54.9463C12.1608 53.6559 8.0133 51.4706 4.80907 48.3902C1.60483 45.3099 0.00270844 41.8341 0.00270844 37.9629C0.00270844 34.0917 1.60483 30.6159 4.80907 27.5356C8.0133 24.4553 12.1608 22.2907 17.2517 21.042V4.05854C17.2517 2.97626 17.8057 2.03967 18.9137 1.24878C20.0217 0.457886 21.3843 0.062439 23.0014 0.062439H57.4993V22.041C57.4993 22.5821 57.7838 23.0504 58.3528 23.4459C58.9218 23.8413 59.5956 24.039 60.3742 24.039H91.9075L91.9973 24.1015V60.0039C91.9973 61.0862 91.4283 62.0228 90.2904 62.8137C89.1524 63.6046 87.8048 64 86.2476 64ZM56.7806 54.322L43.215 44.9561C45.0717 42.7499 46 40.4189 46 37.9629C46 34.1333 44.0385 30.8449 40.1156 28.0976C36.1926 25.3502 31.4462 23.9766 25.8762 23.9766C20.3062 23.9766 15.5597 25.3398 11.6368 28.0663C7.71384 30.7928 5.75237 34.0917 5.75237 37.9629C5.75237 41.8341 7.71384 45.133 11.6368 47.8595C15.5597 50.586 20.3062 51.9493 25.8762 51.9493C29.3499 51.9493 32.7039 51.3041 35.9381 50.0137L49.4139 59.442C49.893 59.775 50.4919 59.9415 51.2106 59.9415C51.9293 59.9415 52.5582 59.775 53.0972 59.442L56.7806 56.882C57.2598 56.5489 57.4993 56.1327 57.4993 55.6332C57.4993 55.1337 57.2598 54.6966 56.7806 54.322ZM25.8762 47.9532C21.9233 47.9532 18.5394 46.9854 15.7244 45.0498C12.9095 43.1141 11.502 40.7623 11.502 37.9941C11.502 35.226 12.9095 32.8637 15.7244 30.9073C18.5394 28.9509 21.9233 27.9727 25.8762 27.9727C29.8291 27.9727 33.213 28.9509 36.0279 30.9073C38.8429 32.8637 40.2503 35.226 40.2503 37.9941C40.2503 40.7623 38.8429 43.1141 36.0279 45.0498C33.213 46.9854 29.8291 47.9532 25.8762 47.9532ZM63.249 0C64.8062 0.041626 66.1238 0.437073 67.2019 1.18634L90.2904 17.2332C91.4283 18.0241 91.9673 18.9606 91.9075 20.0429H63.249V0Z" fill="#699BF7"/>
</g>
<defs>
<clipPath id="clip0_42_228">
<rect width="92" height="64" fill="white"/>
</clipPath>
</defs>
</svg>
